<?xml version="1.0" encoding="UTF-8"?>
<svg id="Capa_1" data-name="Capa 1" xmlns="http://www.w3.org/2000/svg" viewBox="0 0 1500 1500">
  <defs>
    <style>
      .cls-1 {
        fill: #ea6117;
      }
    </style>
  </defs>
  <g>
    <g>
      <path class="cls-1" d="M1297.13,813.63v-.15c3.75-5.14,4.63-7.86,4.63-14.46v-28.85c-.29-4.7-1.54-6.9-5.21-10.13v-.15h13.36l18.87,41.78,18.13-41.78h13v.15c-4.18,3.67-5.21,6.02-5.21,12.26v28.05c0,6.09.59,8.59,2.94,13.14v.15h-14.32v-.15c2.35-4.55,2.94-7.12,2.94-13.14v-34.73l-20.19,46.4h-1.54l-21.29-46.7.22,33.7c.07,6.61,1.03,9.33,5.29,14.46v.15h-11.6Z"/>
      <path class="cls-1" d="M1374.29,813.63h-12.48v-.15c4.41-3.01,7.2-6.24,10.79-11.38l10.43-14.98-10.28-17.11c-2.79-4.63-5.21-7.86-8.74-9.99v-.15h17.11v.15c-1.4,1.54-1.03,5.73,1.25,9.54l6.83,11.31,5.43-7.78c4.18-5.95,4.18-9.32,2.28-13.07v-.15h12.48v.15c-4.7,3.01-8,6.39-11.53,11.38l-7.78,10.94,12.77,21.07c2.86,4.77,5.21,7.93,8.74,10.06v.15h-17.11v-.15c1.39-1.54,1.03-5.73-1.25-9.54l-9.25-15.35-8.15,11.82c-4.33,6.24-2.86,9.33-1.54,13.07v.15Z"/>
      <path class="cls-1" d="M1415.91,809.08c0-2.79,2.2-4.99,4.92-4.99s4.92,2.2,4.92,4.99c0,2.64-2.28,4.92-4.92,4.92s-4.92-2.28-4.92-4.92Z"/>
    </g>
    <g>
      <g>
        <path class="cls-1" d="M477.61,877.89v-.08c1.87-1.99,2.55-3.65,3.81-6.97l8.47-22.94h1.66l8.59,23.3c1.38,3.69,2.27,5.11,3.73,6.61v.08h-7.94v-.08c.77-1.14.89-3.57-.28-6.81l-1.42-3.89h-9.77l-.77,2.11c-1.74,4.7-.73,7.3.16,8.59v.08h-6.24ZM493.62,865.53l-4.3-11.67-4.3,11.67h8.59Z"/>
        <path class="cls-1" d="M520.33,878.5c-9.65,0-15.73-6.77-15.73-15.44s6.2-15.44,16.41-15.44c4.62,0,8.19,1.22,10.38,1.95l.89,6.93-.73.2c-3.48-5.27-6.44-7.46-10.94-7.46-7.62,0-11.19,6.04-11.19,13.86s3.12,13.78,10.9,13.78c4.58,0,7.9-1.9,7.9-5.92,0-2.76-.41-4.22-1.91-6.53v-.08h7.62v.08c-1.34,2.43-1.66,3.81-1.66,7.09v2.72c-1.91,1.3-5.47,4.25-11.96,4.25Z"/>
        <path class="cls-1" d="M537.72,877.81c1.05-2.39,1.62-3.93,1.62-6.57v-16.37c0-2.67-.57-4.17-1.62-6.57v-.08h18.52l1.58,7.09-.69.32c-1.99-2.15-4.22-5.67-5.8-5.75l-7.7-.24v12.48h4.01c1.66,0,3.32-2.63,4.26-4.17h.73v9.85h-.73c-.93-1.42-2.59-4.05-4.34-4.05h-3.93v12.73l8.07-.28c3.04-.08,5.47-3.69,7.66-6.85l.69.32-1.78,8.23h-20.55v-.08Z"/>
        <path class="cls-1" d="M567.35,853.04l.2,16.98c0,3.57.49,5.02,2.8,7.78v.08h-6.97v-.08c1.99-2.76,2.43-4.22,2.43-7.78v-16.62c-.32-2.31-1.18-3.53-3.2-5.11v-.08h6.4l17.1,22.58-.12-14.71c-.04-3.57-.53-5.03-2.51-7.78v-.08h6.61v.08c-1.95,2.75-2.43,4.22-2.43,7.78v21.8l-1.7.12-18.6-24.97Z"/>
        <path class="cls-1" d="M619.31,875.54c-.81.65-5.63,2.96-11.1,2.96-9.36,0-15.28-6.77-15.28-15.44s6.61-15.44,16.09-15.44c4.22,0,8.02,1.09,10.13,1.95l.93,7.34-.69.2c-3.65-5.59-6.24-7.86-10.9-7.86-7.58,0-10.74,5.88-10.74,13.82s3.24,13.82,10.46,13.82c5.67,0,8.67-3.89,11.31-9.57l.69.2-.89,8.03Z"/>
        <path class="cls-1" d="M624.95,877.81c1.38-2.43,1.66-3.77,1.66-7.01v-15.48c0-3.24-.28-4.58-1.66-7.01v-.08h7.58v.08c-1.34,2.43-1.66,3.77-1.66,7.01v15.48c0,3.24.32,4.58,1.7,7.01l-.04.08h-7.58v-.08Z"/>
        <path class="cls-1" d="M635.73,877.89v-.08c1.86-1.99,2.55-3.65,3.81-6.97l8.47-22.94h1.66l8.59,23.3c1.38,3.69,2.27,5.11,3.73,6.61v.08h-7.94v-.08c.77-1.14.89-3.57-.28-6.81l-1.42-3.89h-9.77l-.77,2.11c-1.74,4.7-.73,7.3.16,8.59v.08h-6.24ZM651.74,865.53l-4.3-11.67-4.3,11.67h8.59Z"/>
        <path class="cls-1" d="M674.72,877.81c1.34-2.19,1.66-3.36,1.66-6.24v-17.02c0-2.88-.32-4.05-1.66-6.24v-.08c5.11,0,5.8-.16,11.19-.16,9.85,0,15.85,5.15,15.85,14.79s-5.76,15.04-15.97,15.04h-11.06v-.08ZM685.54,849.64h-4.9v26.75l4.82-.08c8.31-.2,11.43-4.98,11.43-13.46,0-9.28-3.77-13.21-11.35-13.21Z"/>
        <path class="cls-1" d="M705.57,877.81c1.05-2.39,1.62-3.93,1.62-6.57v-16.37c0-2.67-.57-4.17-1.62-6.57v-.08h18.52l1.58,7.09-.69.32c-1.99-2.15-4.22-5.67-5.8-5.75l-7.7-.24v12.48h4.01c1.66,0,3.32-2.63,4.26-4.17h.73v9.85h-.73c-.93-1.42-2.59-4.05-4.34-4.05h-3.93v12.73l8.07-.28c3.04-.08,5.47-3.69,7.66-6.85l.69.32-1.78,8.23h-20.55v-.08Z"/>
        <path class="cls-1" d="M741.6,877.81c1.38-2.43,1.66-3.77,1.66-7.01v-15.48c0-3.24-.28-4.58-1.66-7.01v-.08h7.58v.08c-1.34,2.43-1.66,3.77-1.66,7.01v15.48c0,3.24.32,4.58,1.7,7.01l-.04.08h-7.58v-.08Z"/>
        <path class="cls-1" d="M757.37,853.04l.2,16.98c0,3.57.49,5.02,2.8,7.78v.08h-6.97v-.08c1.99-2.76,2.43-4.22,2.43-7.78v-16.62c-.32-2.31-1.18-3.53-3.2-5.11v-.08h6.4l17.1,22.58-.12-14.71c-.04-3.57-.53-5.03-2.51-7.78v-.08h6.61v.08c-1.95,2.75-2.43,4.22-2.43,7.78v21.8l-1.7.12-18.6-24.97Z"/>
        <path class="cls-1" d="M800.29,877.89h-7.5v-.08c1.3-2.39,1.62-3.73,1.62-6.89v-21.24l-4.66.16c-1.58.08-4.3,4.5-6.2,7.22l-.69-.28,1.58-8.55h24.24l1.54,8.55-.69.28c-1.99-2.72-4.5-7.13-6.2-7.22l-4.66-.16v21.24c0,3.2.32,4.5,1.62,6.89v.08Z"/>
        <path class="cls-1" d="M813.96,877.81c1.05-2.39,1.62-3.93,1.62-6.57v-16.37c0-2.67-.57-4.17-1.62-6.57v-.08h18.52l1.58,7.09-.69.32c-1.99-2.15-4.22-5.67-5.8-5.75l-7.7-.24v12.48h4.01c1.66,0,3.32-2.63,4.26-4.17h.73v9.85h-.73c-.93-1.42-2.59-4.05-4.34-4.05h-3.93v12.73l8.07-.28c3.04-.08,5.47-3.69,7.66-6.85l.69.32-1.78,8.23h-20.55v-.08Z"/>
        <path class="cls-1" d="M846.38,876.55l6.81-.28c3.16-.12,5.63-3.45,7.78-6.89l.69.28-1.86,8.23h-19.42v-.08c1.38-2.51,1.7-3.93,1.7-7.26v-15.24c0-3.24-.32-4.58-1.66-7.01v-.08h7.62v.08c-1.38,2.43-1.66,3.77-1.66,7.01v21.24Z"/>
        <path class="cls-1" d="M864.82,877.81c1.38-2.43,1.66-3.77,1.66-7.01v-15.48c0-3.24-.28-4.58-1.66-7.01v-.08h7.58v.08c-1.34,2.43-1.66,3.77-1.66,7.01v15.48c0,3.24.32,4.58,1.7,7.01l-.04.08h-7.58v-.08Z"/>
        <path class="cls-1" d="M891.94,878.5c-9.65,0-15.73-6.77-15.73-15.44s6.2-15.44,16.41-15.44c4.62,0,8.19,1.22,10.38,1.95l.89,6.93-.73.2c-3.48-5.27-6.44-7.46-10.94-7.46-7.62,0-11.19,6.04-11.19,13.86s3.12,13.78,10.9,13.78c4.58,0,7.9-1.9,7.9-5.92,0-2.76-.41-4.22-1.9-6.53v-.08h7.62v.08c-1.34,2.43-1.66,3.81-1.66,7.09v2.72c-1.9,1.3-5.47,4.25-11.96,4.25Z"/>
        <path class="cls-1" d="M909.33,877.81c1.05-2.39,1.62-3.93,1.62-6.57v-16.37c0-2.67-.57-4.17-1.62-6.57v-.08h18.52l1.58,7.09-.69.32c-1.99-2.15-4.22-5.67-5.8-5.75l-7.7-.24v12.48h4.01c1.66,0,3.32-2.63,4.26-4.17h.73v9.85h-.73c-.93-1.42-2.59-4.05-4.34-4.05h-3.93v12.73l8.07-.28c3.04-.08,5.47-3.69,7.66-6.85l.69.32-1.78,8.23h-20.55v-.08Z"/>
        <path class="cls-1" d="M938.96,853.04l.2,16.98c0,3.57.49,5.02,2.8,7.78v.08h-6.97v-.08c1.99-2.76,2.43-4.22,2.43-7.78v-16.62c-.32-2.31-1.17-3.53-3.2-5.11v-.08h6.4l17.1,22.58-.12-14.71c-.04-3.57-.53-5.03-2.51-7.78v-.08h6.61v.08c-1.95,2.75-2.43,4.22-2.43,7.78v21.8l-1.7.12-18.6-24.97Z"/>
        <path class="cls-1" d="M990.92,875.54c-.81.65-5.63,2.96-11.1,2.96-9.36,0-15.28-6.77-15.28-15.44s6.61-15.44,16.09-15.44c4.22,0,8.02,1.09,10.13,1.95l.93,7.34-.69.2c-3.65-5.59-6.24-7.86-10.9-7.86-7.58,0-10.74,5.88-10.74,13.82s3.24,13.82,10.46,13.82c5.67,0,8.67-3.89,11.31-9.57l.69.2-.89,8.03Z"/>
        <path class="cls-1" d="M996.56,877.81c1.38-2.43,1.66-3.77,1.66-7.01v-15.48c0-3.24-.28-4.58-1.66-7.01v-.08h7.58v.08c-1.34,2.43-1.66,3.77-1.66,7.01v15.48c0,3.24.32,4.58,1.7,7.01l-.04.08h-7.58v-.08Z"/>
        <path class="cls-1" d="M1007.34,877.89v-.08c1.86-1.99,2.55-3.65,3.81-6.97l8.47-22.94h1.66l8.59,23.3c1.38,3.69,2.27,5.11,3.73,6.61v.08h-7.94v-.08c.77-1.14.89-3.57-.28-6.81l-1.42-3.89h-9.77l-.77,2.11c-1.74,4.7-.73,7.3.16,8.59v.08h-6.24ZM1023.35,865.53l-4.3-11.67-4.3,11.67h8.59Z"/>
        <path class="cls-1" d="M1044.55,877.89v-.08c1.86-1.99,2.55-3.65,3.81-6.97l8.47-22.94h1.66l8.59,23.3c1.38,3.69,2.27,5.11,3.73,6.61v.08h-7.94v-.08c.77-1.14.89-3.57-.28-6.81l-1.42-3.89h-9.77l-.77,2.11c-1.74,4.7-.73,7.3.16,8.59v.08h-6.24ZM1060.56,865.53l-4.3-11.67-4.3,11.67h8.59Z"/>
        <path class="cls-1" d="M1081.52,877.89h-7.58v-.08c1.34-2.43,1.66-3.81,1.66-7.05v-15.4c0-3.28-.32-4.62-1.66-7.05v-.08h10.33c7.13,0,10.01,2.92,10.01,7.34,0,3.45-1.78,6.32-5.67,7.7l4.62,8.96c1.74,3.4,2.63,4.38,4.74,5.43v.24h-6.69l-7.13-13.86h-4.3v6.73c0,3.28.32,4.62,1.66,7.05v.08ZM1079.85,849.84v12.6h3.65c4.98,0,6.28-3.28,6.28-6.73,0-3.65-1.42-5.92-6.32-5.92-.61,0-1.82,0-3.61.04Z"/>
        <path class="cls-1" d="M1115.81,877.89h-7.5v-.08c1.3-2.39,1.62-3.73,1.62-6.89v-21.24l-4.66.16c-1.58.08-4.3,4.5-6.2,7.22l-.69-.28,1.58-8.55h24.24l1.54,8.55-.69.28c-1.99-2.72-4.5-7.13-6.2-7.22l-4.66-.16v21.24c0,3.2.32,4.5,1.62,6.89v.08Z"/>
        <path class="cls-1" d="M1129.43,877.81c1.38-2.43,1.66-3.77,1.66-7.01v-15.48c0-3.24-.28-4.58-1.66-7.01v-.08h7.58v.08c-1.34,2.43-1.66,3.77-1.66,7.01v15.48c0,3.24.32,4.58,1.7,7.01l-.04.08h-7.58v-.08Z"/>
        <path class="cls-1" d="M1149.57,877.89h-7.58v-.08c1.34-2.43,1.66-3.81,1.66-7.01v-15.48c0-3.24-.32-4.58-1.66-7.01v-.08h19.58l1.58,7.46-.73.24c-1.99-2.19-4.17-6-5.8-6.04l-8.72-.28v12.24h4.62c1.82,0,3.65-2.68,4.7-4.17h.37v9.81h-.37c-1.01-1.38-2.84-4.05-4.7-4.05h-4.62v7.38c0,3.24.32,4.58,1.66,7.01v.08Z"/>
        <path class="cls-1" d="M1166.68,877.81c1.38-2.43,1.66-3.77,1.66-7.01v-15.48c0-3.24-.28-4.58-1.66-7.01v-.08h7.58v.08c-1.34,2.43-1.66,3.77-1.66,7.01v15.48c0,3.24.32,4.58,1.7,7.01l-.04.08h-7.58v-.08Z"/>
        <path class="cls-1" d="M1204.45,875.54c-.81.65-5.63,2.96-11.1,2.96-9.36,0-15.28-6.77-15.28-15.44s6.61-15.44,16.09-15.44c4.22,0,8.02,1.09,10.13,1.95l.93,7.34-.69.2c-3.65-5.59-6.24-7.86-10.9-7.86-7.58,0-10.74,5.88-10.74,13.82s3.24,13.82,10.46,13.82c5.67,0,8.67-3.89,11.31-9.57l.69.2-.89,8.03Z"/>
        <path class="cls-1" d="M1210.09,877.81c1.38-2.43,1.66-3.77,1.66-7.01v-15.48c0-3.24-.28-4.58-1.66-7.01v-.08h7.58v.08c-1.34,2.43-1.66,3.77-1.66,7.01v15.48c0,3.24.32,4.58,1.7,7.01l-.04.08h-7.58v-.08Z"/>
        <path class="cls-1" d="M1220.87,877.89v-.08c1.86-1.99,2.55-3.65,3.81-6.97l8.47-22.94h1.66l8.59,23.3c1.38,3.69,2.27,5.11,3.73,6.61v.08h-7.94v-.08c.77-1.14.89-3.57-.28-6.81l-1.42-3.89h-9.77l-.77,2.11c-1.74,4.7-.73,7.3.16,8.59v.08h-6.24ZM1236.88,865.53l-4.3-11.67-4.3,11.67h8.59Z"/>
        <path class="cls-1" d="M1256.26,876.55l6.81-.28c3.16-.12,5.63-3.45,7.78-6.89l.69.28-1.86,8.23h-19.41v-.08c1.38-2.51,1.7-3.93,1.7-7.26v-15.24c0-3.24-.32-4.58-1.66-7.01v-.08h7.62v.08c-1.38,2.43-1.66,3.77-1.66,7.01v21.24Z"/>
      </g>
      <g>
        <path class="cls-1" d="M510.53,814h-33.61v-.5c11.95-12.45,16.43-23.65,23.65-42.83l53.53-140.93h4.98l54.53,143.67c8.22,21.66,13.94,31.12,22.66,40.09v.5h-49.55v-.5c4.23-7.22,4.23-22.91-2.74-41.33l-10.21-26.89h-58.51l-5.23,13.94c-11.2,29.13-4.73,46.06.5,54.28v.5ZM544.64,668.35l-27.39,71.96h54.53l-27.14-71.96Z"/>
        <path class="cls-1" d="M647.97,814v-.5c7.97-15.44,9.96-24.15,9.96-44.57v-92.13c0-20.67-1.99-29.13-9.96-44.57v-.5h48.55v.5c-8.22,15.44-9.96,23.9-9.96,44.57v133.71l37.6-1.49c20.67-1,39.84-23.9,53.78-45.07l1.99.75-10.96,49.3h-121.01Z"/>
        <path class="cls-1" d="M793.38,813.5c7.97-15.44,9.96-24.15,9.96-44.57v-92.13c0-20.67-1.99-29.13-9.96-44.57v-.5h58.76c54.28,0,70.46,23.65,70.46,50.29,0,33.11-25.65,57.27-74.2,57.27h-16.43v29.63c0,20.66,1.74,29.13,9.96,44.57v.5h-48.55v-.5ZM831.97,637.22v97.1h15.44c33.11,0,46.31-25.15,46.31-51.79,0-36.1-20.42-45.81-45.81-45.81-3.49,0-7.97,0-15.94.5Z"/>
        <path class="cls-1" d="M937.29,813.5c7.97-15.44,9.96-24.15,9.96-44.57v-92.13c0-20.67-1.99-29.13-9.96-44.57v-.5h48.55v.5c-8.22,15.44-9.96,23.9-9.96,44.57v40.83h86.9v-40.83c0-20.42-1.74-29.13-9.96-44.57v-.5h48.55v.5c-7.97,15.44-9.96,23.9-9.96,44.57v92.13c0,20.66,1.99,29.13,9.96,44.57v.5h-48.55v-.5c8.22-15.44,9.96-24.15,9.96-44.57v-46.31h-86.9v46.31c0,20.66,1.74,29.13,9.96,44.57v.5h-48.55v-.5Z"/>
        <path class="cls-1" d="M1146.69,814h-33.61v-.5c11.95-12.45,16.43-23.65,23.65-42.83l53.53-140.93h4.98l54.53,143.67c8.22,21.66,13.94,31.12,22.66,40.09v.5h-49.55v-.5c4.23-7.22,4.23-22.91-2.74-41.33l-10.21-26.89h-58.51l-5.23,13.94c-11.2,29.13-4.73,46.06.5,54.28v.5ZM1180.8,668.35l-27.39,71.96h54.53l-27.14-71.96Z"/>
      </g>
    </g>
  </g>
  <path class="cls-1" d="M377.05,810.94c-1.99-.62-6.96.46-9.35,0-1.28,3.12-1.7,6.88-2.72,10.27-9.38,31.04-43.63,35.44-56.11,3.89-5.07-12.81-7.8-27.19-11.53-40.46l.2-2.29,44.21-151.11.24-2.62h-42.86l-22.6,79.47c-.75-.05-.8-.79-1.05-1.28-7.2-14.12-11.15-27.68-20.03-41.79-43.56-69.19-130.67-49.99-165.51,16.23-33.86,64.36-13.54,176.27,67.01,193.42,47.8,10.18,90.56-3.55,117.2-45.07,3.79-5.91,6.82-12.38,10.69-18.14,6.5,27.17,16.32,68.53,52.24,65.99,28.77-2.03,39.86-40.31,40.78-64.2.03-.74.01-2.06-.8-2.31ZM259,765.63c-11.52,36.66-34.5,106.05-85.34,92.85-23.63-6.14-38.54-28.42-44.11-50.95-8.37-33.85-6.34-95.58,6.99-127.99,7.14-17.36,22.75-36.78,42.73-38.82,41.43-4.23,67.55,37.13,79.6,70.74,2.04,5.69,7.58,20.69,7.82,25.97.2,4.59-5.94,22.63-7.69,28.2Z"/>
  <rect class="cls-1" x="409.41" y="621.5" width="26.54" height="256.39"/>
</svg>