<?xml version="1.0" encoding="UTF-8"?>
<svg id="Capa_1" data-name="Capa 1" xmlns="http://www.w3.org/2000/svg" viewBox="0 0 1500 1500">
  <defs>
    <style>
      .cls-1 {
        fill: #fff;
      }

      .cls-2 {
        fill: #ea6117;
      }
    </style>
  </defs>
  <rect class="cls-2" width="1500" height="1500"/>
  <path class="cls-1" d="M1172.36,921.32c-5.58-1.75-19.46,1.28-26.16,0-3.59,8.74-4.75,19.26-7.61,28.72-26.23,86.84-122.05,99.13-156.95,10.87-14.17-35.83-21.81-76.04-32.24-113.17l.55-6.4,123.66-422.69.67-7.32h-119.88l-63.23,222.3c-2.1-.14-2.23-2.22-2.93-3.59-20.13-39.51-31.18-77.41-56.03-116.88-121.85-193.54-365.51-139.82-462.94,45.4-94.7,180.02-37.87,493.04,187.43,541.03,133.71,28.48,253.3-9.92,327.83-126.08,10.61-16.54,19.07-34.63,29.89-50.73,18.19,76.01,45.65,191.69,146.12,184.59,80.47-5.69,111.49-112.74,114.06-179.58.08-2.06.04-5.75-2.24-6.47ZM842.16,794.57c-32.22,102.54-96.5,296.64-238.71,259.71-66.09-17.16-107.81-79.49-123.39-142.51-23.41-94.67-17.73-267.36,19.56-358,19.97-48.55,63.64-102.89,119.54-108.59,115.89-11.82,188.95,103.86,222.65,197.88,5.71,15.92,21.22,57.86,21.87,72.65.56,12.83-16.61,63.3-21.51,78.87Z"/>
</svg>